# xmcd
#
# Track frame offsets: 
#        150
#        21989
#        37301
#        50009
#        65545
#        82475
#        103418
#
# Disc length: 1581 seconds
#
# Revision: 0
# Processed by: cddbd v1.5.2PL0 Copyright (c) Steve Scherf et al.
# Submitted via: ExactAudioCopy v0.99pb4
#
DISCID=6e062b07
DTITLE=The Loose Lariats - The Loose Lariats
DYEAR=1999
DGENRE=Pop Country
TTITLE0=Return of the Grievous Angel
TTITLE1=Close Watch
TTITLE2=Falling Dream
TTITLE3=Rainy Day
TTITLE4=Jimmy
TTITLE5=Arizona Moon
TTITLE6=Downtown
EXTD=
EXTT0=
EXTT1=
EXTT2=
EXTT3=
EXTT4=
EXTT5=
EXTT6=
PLAYORDER=
